{
    "asset" : {
        "generator" : "Khronos glTF Blender I/O v1.8.19",
        "version" : "2.0"
    },
    "scene" : 0,
    "scenes" : [
        {
            "name" : "Scene",
            "nodes" : [
                0,
                1,
                2,
                3,
                4,
                5,
                6,
                7,
                8,
                9,
                10,
                11,
                12,
                13,
                14,
                15
            ]
        }
    ],
    "nodes" : [
        {
            "mesh" : 0,
            "name" : "Cube",
            "scale" : [
                15,
                10,
                0.5
            ],
            "translation" : [
                0,
                0,
                -4.309162139892578
            ]
        },
        {
            "mesh" : 1,
            "name" : "Cube.001",
            "scale" : [
                1.933019757270813,
                1.933019757270813,
                0.09338651597499847
            ],
            "translation" : [
                0,
                6.926246643066406,
                -3.7934579849243164
            ]
        },
        {
            "mesh" : 1,
            "name" : "Cube.002",
            "scale" : [
                1.933019757270813,
                1.933019757270813,
                0.09338651597499847
            ],
            "translation" : [
                6,
                6.926246643066406,
                -3.7934579849243164
            ]
        },
        {
            "mesh" : 1,
            "name" : "Cube.003",
            "scale" : [
                1.933019757270813,
                1.933019757270813,
                0.09338651597499847
            ],
            "translation" : [
                12,
                6.926246643066406,
                -3.7934579849243164
            ]
        },
        {
            "mesh" : 1,
            "name" : "Cube.004",
            "scale" : [
                1.933019757270813,
                1.933019757270813,
                0.09338651597499847
            ],
            "translation" : [
                -6,
                6.926246643066406,
                -3.7934579849243164
            ]
        },
        {
            "mesh" : 1,
            "name" : "Cube.005",
            "scale" : [
                1.933019757270813,
                1.933019757270813,
                0.09338651597499847
            ],
            "translation" : [
                -12,
                6.926246643066406,
                -3.7934579849243164
            ]
        },
        {
            "mesh" : 1,
            "name" : "Cube.006",
            "scale" : [
                1.933019757270813,
                1.933019757270813,
                0.09338651597499847
            ],
            "translation" : [
                0,
                1.5,
                -3.7934579849243164
            ]
        },
        {
            "mesh" : 1,
            "name" : "Cube.007",
            "scale" : [
                1.933019757270813,
                1.933019757270813,
                0.09338651597499847
            ],
            "translation" : [
                6,
                1.5,
                -3.7934579849243164
            ]
        },
        {
            "mesh" : 1,
            "name" : "Cube.008",
            "scale" : [
                1.933019757270813,
                1.933019757270813,
                0.09338651597499847
            ],
            "translation" : [
                12,
                1.5,
                -3.7934579849243164
            ]
        },
        {
            "mesh" : 1,
            "name" : "Cube.009",
            "scale" : [
                1.933019757270813,
                1.933019757270813,
                0.09338651597499847
            ],
            "translation" : [
                -6,
                1.5,
                -3.7934579849243164
            ]
        },
        {
            "mesh" : 1,
            "name" : "Cube.010",
            "scale" : [
                1.933019757270813,
                1.933019757270813,
                0.09338651597499847
            ],
            "translation" : [
                -12,
                1.5,
                -3.7934579849243164
            ]
        },
        {
            "mesh" : 1,
            "name" : "Cube.011",
            "scale" : [
                1.933019757270813,
                1.933019757270813,
                0.09338651597499847
            ],
            "translation" : [
                0,
                -3.5,
                -3.7934579849243164
            ]
        },
        {
            "mesh" : 1,
            "name" : "Cube.012",
            "scale" : [
                1.933019757270813,
                1.933019757270813,
                0.09338651597499847
            ],
            "translation" : [
                6,
                -3.5,
                -3.7934579849243164
            ]
        },
        {
            "mesh" : 1,
            "name" : "Cube.013",
            "scale" : [
                1.933019757270813,
                1.933019757270813,
                0.09338651597499847
            ],
            "translation" : [
                12,
                -3.5,
                -3.7934579849243164
            ]
        },
        {
            "mesh" : 1,
            "name" : "Cube.014",
            "scale" : [
                1.933019757270813,
                1.933019757270813,
                0.09338651597499847
            ],
            "translation" : [
                -6,
                -3.5,
                -3.7934579849243164
            ]
        },
        {
            "mesh" : 1,
            "name" : "Cube.015",
            "scale" : [
                1.933019757270813,
                1.933019757270813,
                0.09338651597499847
            ],
            "translation" : [
                -12,
                -3.5,
                -3.7934579849243164
            ]
        }
    ],
    "materials" : [
        {
            "doubleSided" : true,
            "name" : "Material.005",
            "pbrMetallicRoughness" : {
                "baseColorTexture" : {
                    "index" : 0
                },
                "metallicFactor" : 0,
                "roughnessFactor" : 0.5
            }
        },
        {
            "doubleSided" : true,
            "name" : "Material.006",
            "pbrMetallicRoughness" : {
                "baseColorFactor" : [
                    0,
                    0,
                    0,
                    1
                ],
                "metallicFactor" : 0,
                "roughnessFactor" : 0.5
            }
        },
        {
            "doubleSided" : true,
            "name" : "Material.008",
            "pbrMetallicRoughness" : {
                "baseColorTexture" : {
                    "index" : 1
                },
                "metallicFactor" : 0,
                "roughnessFactor" : 0.5
            }
        }
    ],
    "meshes" : [
        {
            "name" : "Cube.001",
            "primitives" : [
                {
                    "attributes" : {
                        "POSITION" : 0,
                        "NORMAL" : 1,
                        "TEXCOORD_0" : 2
                    },
                    "indices" : 3,
                    "material" : 0
                },
                {
                    "attributes" : {
                        "POSITION" : 4,
                        "NORMAL" : 5,
                        "TEXCOORD_0" : 6
                    },
                    "indices" : 7,
                    "material" : 1
                }
            ]
        },
        {
            "name" : "Cube.003",
            "primitives" : [
                {
                    "attributes" : {
                        "POSITION" : 8,
                        "NORMAL" : 9,
                        "TEXCOORD_0" : 10
                    },
                    "indices" : 11,
                    "material" : 2
                }
            ]
        }
    ],
    "textures" : [
        {
            "sampler" : 0,
            "source" : 0
        },
        {
            "sampler" : 0,
            "source" : 1
        }
    ],
    "images" : [
        {
            "mimeType" : "image/jpeg",
            "name" : "white-brick-wall-texture-for-background-or-wallpaper-abstract-interior-decoration-vintage-style-photo",
            "uri" : "white-brick-wall-texture-for-background-or-wallpaper-abstract-interior-decoration-vintage-style-photo.jpg"
        },
        {
            "mimeType" : "image/jpeg",
            "name" : "RapAlbumDesign_2014ForestHilldsDrive_J.Cole_2014_(#1)",
            "uri" : "RapAlbumDesign_2014ForestHilldsDrive_J_Cole_2014_1.jpg"
        }
    ],
    "accessors" : [
        {
            "bufferView" : 0,
            "componentType" : 5126,
            "count" : 4,
            "max" : [
                1,
                1,
                1
            ],
            "min" : [
                -1,
                -1,
                1
            ],
            "type" : "VEC3"
        },
        {
            "bufferView" : 1,
            "componentType" : 5126,
            "count" : 4,
            "type" : "VEC3"
        },
        {
            "bufferView" : 2,
            "componentType" : 5126,
            "count" : 4,
            "type" : "VEC2"
        },
        {
            "bufferView" : 3,
            "componentType" : 5123,
            "count" : 6,
            "type" : "SCALAR"
        },
        {
            "bufferView" : 4,
            "componentType" : 5126,
            "count" : 20,
            "max" : [
                1,
                1,
                1
            ],
            "min" : [
                -1,
                -1,
                -1
            ],
            "type" : "VEC3"
        },
        {
            "bufferView" : 5,
            "componentType" : 5126,
            "count" : 20,
            "type" : "VEC3"
        },
        {
            "bufferView" : 6,
            "componentType" : 5126,
            "count" : 20,
            "type" : "VEC2"
        },
        {
            "bufferView" : 7,
            "componentType" : 5123,
            "count" : 30,
            "type" : "SCALAR"
        },
        {
            "bufferView" : 8,
            "componentType" : 5126,
            "count" : 24,
            "max" : [
                1,
                1,
                1
            ],
            "min" : [
                -1,
                -1,
                -1
            ],
            "type" : "VEC3"
        },
        {
            "bufferView" : 9,
            "componentType" : 5126,
            "count" : 24,
            "type" : "VEC3"
        },
        {
            "bufferView" : 10,
            "componentType" : 5126,
            "count" : 24,
            "type" : "VEC2"
        },
        {
            "bufferView" : 11,
            "componentType" : 5123,
            "count" : 36,
            "type" : "SCALAR"
        }
    ],
    "bufferViews" : [
        {
            "buffer" : 0,
            "byteLength" : 48,
            "byteOffset" : 0
        },
        {
            "buffer" : 0,
            "byteLength" : 48,
            "byteOffset" : 48
        },
        {
            "buffer" : 0,
            "byteLength" : 32,
            "byteOffset" : 96
        },
        {
            "buffer" : 0,
            "byteLength" : 12,
            "byteOffset" : 128
        },
        {
            "buffer" : 0,
            "byteLength" : 240,
            "byteOffset" : 140
        },
        {
            "buffer" : 0,
            "byteLength" : 240,
            "byteOffset" : 380
        },
        {
            "buffer" : 0,
            "byteLength" : 160,
            "byteOffset" : 620
        },
        {
            "buffer" : 0,
            "byteLength" : 60,
            "byteOffset" : 780
        },
        {
            "buffer" : 0,
            "byteLength" : 288,
            "byteOffset" : 840
        },
        {
            "buffer" : 0,
            "byteLength" : 288,
            "byteOffset" : 1128
        },
        {
            "buffer" : 0,
            "byteLength" : 192,
            "byteOffset" : 1416
        },
        {
            "buffer" : 0,
            "byteLength" : 72,
            "byteOffset" : 1608
        }
    ],
    "samplers" : [
        {
            "magFilter" : 9729,
            "minFilter" : 9987
        }
    ],
    "buffers" : [
        {
            "byteLength" : 1680,
            "uri" : "untitled.bin"
        }
    ]
}
